<?xml version="1.0" encoding="UTF-8"?>
<svg id="Layer_2" data-name="Layer 2" xmlns="http://www.w3.org/2000/svg" viewBox="0 0 986.83 255.8">
  <defs>
    <style>
      .cls-1 {
        fill: #edffbf;
      }

      .cls-2 {
        fill: #b8e900;
      }

      .cls-3 {
        fill: #9aff8a;
      }

      .cls-4 {
        fill: #c8ea50;
      }

      .cls-5 {
        fill: #c8f191;
      }

      .cls-6 {
        fill: #d3fa39;
      }

      .cls-7 {
        fill: #c8bf91;
      }

      .cls-8 {
        fill: #c8d750;
      }

      .cls-9 {
        fill: #273f00;
      }
    </style>
  </defs>
  <g id="Layer_1-2" data-name="Layer 1">
    <g>
      <polygon class="cls-6" points="80.67 0 60.17 23.65 53.87 62.8 77.25 25.75 80.67 0"/>
      <polygon class="cls-8" points="14.98 49.92 58.42 34.54 53.87 62.8 32.06 78.3 23.35 63.84 14.98 49.92"/>
      <polygon class="cls-4" points="12.88 82.77 23.35 63.84 32.06 78.3 44.93 118.24 32.85 167.64 12.88 82.77"/>
      <polygon class="cls-7" points="32.32 173.42 0 165.01 12.88 82.77 32.85 167.64 32.32 173.42"/>
      <polygon class="cls-5" points="44.93 118.24 32.85 167.64 32.32 173.42 58.42 218.12 44.93 118.24"/>
      <polygon class="cls-1" points="0 165.01 32.32 173.42 50.44 204.46 13.93 235.7 23.91 209.42 0 186.4 0 165.01"/>
      <path class="cls-2" d="m2.89,254.61l29.95,1.19-18.92-20.11,9.98-26.28L0,186.4c2.2,4.02,6.29,12.77,6.31,24.59.01,11.88-4.11,20.68-6.31,24.7l2.89,18.92Z"/>
      <path class="cls-3" d="m64.9,253.83c.09-5.78.18-11.56.26-17.34l-6.75-18.37-7.97-13.66-36.52,31.24,18.92,20.11,32.06-1.98Z"/>
      <g>
        <path class="cls-9" d="m208.25,118.14c29.57-17.7,41.96-22.48,59.49-22.48,27.62,0,43.55,15.58,43.55,42.31,0,22.48-11.86,41.08-33.46,52.76-13.1,7.08-23.55,9.74-43.73,11.15l-1.77-7.61c41.61-6.2,64.62-26.91,64.62-57.9,0-21.07-10.27-31.87-30.1-31.87-15.23,0-28.86,6.2-58.78,26.38v78.61h-13.81v-71.88c-18.41,30.81-21.42,35.94-32.22,51.7l-10.98-10.09c11.69-13.63,32.93-47.45,44.26-69.93v-.89l-40.9,3.72-.71-10.8,41.61-3.36v-38.07h13.81v36.12l6.91,5.67-7.79,12.22v4.25Z"/>
        <path class="cls-9" d="m389.76,64.14c-3.54,17.71-4.96,24.43-7.26,32.93,6.73-.53,12.75-.89,18.06-.89,13.46,0,22.31,4.07,27.44,12.57,3.01,4.96,4.25,11.86,4.25,23.55,0,19.48-3.89,40.37-10.09,55.06-5.13,12.22-13.99,20.01-22.48,20.01-6.02,0-13.46-5.13-31.87-21.95l3.19-4.78c18.77,9.38,23.19,11.15,26.91,11.15,4.25,0,7.97-3.9,11.15-11.69,6.2-15.05,9.38-32.4,9.38-50.1,0-18.94-4.07-24.43-17.88-24.43-4.96,0-9.56.35-20.36,1.42-11.86,41.61-20.01,63.38-37.18,99.15l-14.52-5.67c17-33.11,24.43-51.88,36.29-91.36-11.33,1.95-18.77,3.54-37.18,8.14l-2.3-12.57c13.1-2.3,18.77-3.01,42.31-6.2,3.01-11.33,5.13-22.66,7.08-36.12l15.05,1.77Zm55.24,26.73c9.74,7.97,18.06,17.53,26.73,30.98,7.97,12.39,10.45,18.24,10.45,24.79,0,9.38-4.25,16.82-9.56,16.82-2.66,0-3.9-1.95-4.96-7.61-4.25-22.84-14.34-43.91-28.68-60.55l6.02-4.43Z"/>
        <path class="cls-9" d="m598.71,65.38c-2.83,14.16-3.72,18.41-5.49,26.2,13.1,1.42,19.12,2.66,26.2,5.84,20.01,8.5,30.81,24.96,30.81,46.74,0,23.02-12.57,41.96-35.41,53.47-12.22,6.02-22.49,9.03-43.02,12.04l-2.12-7.08c18.94-5.31,26.56-7.97,35.76-12.92,18.94-10.09,29.57-27.8,29.57-48.87,0-17.17-6.73-28.33-20.89-35.06-7.26-3.19-13.63-4.6-23.19-4.96-5.84,19.83-15.93,41.61-27.44,58.25,4.96,5.84,7.08,8.32,13.63,14.87l-9.56,10.98c-6.02-6.02-6.9-7.08-12.39-13.81-15.93,18.41-24.26,24.26-35.06,24.26-13.81,0-21.95-10.45-21.95-28.5,0-19.65,7.97-37,24.61-52.94-6.2-16.64-8.14-22.31-11.86-37.18l14.52-3.54c3.19,15.4,4.43,20.71,8.67,32.93,13.46-8.32,26.73-12.57,44.44-14.34,2.3-10.8,3.01-15.76,4.78-29.04l15.4,2.66Zm-87.99,98.44c0,11.51,3.54,18.24,9.74,18.24,7.44,0,15.58-6.37,26.91-20.89-11.51-18.06-13.63-22.13-20.36-38.07-11.15,13.1-16.29,25.85-16.29,40.72Zm65.33-62.67c-17,2.12-28.5,6.2-38.6,13.81,6.37,15.23,9.03,20.18,18.06,33.82,9.92-16.47,16.29-31.16,20.54-47.63Z"/>
        <path class="cls-9" d="m818,107.87v10.98h-65.51c-1.59,28.86-6.9,44.97-20.18,60.73-12.75,14.87-27.26,24.08-46.74,29.92l-3.36-6.37c38.07-17.7,54.35-42.31,55.77-84.27h-72.41v-10.98h73.12v-47.27h14.34v47.27h64.98Z"/>
        <path class="cls-9" d="m860.41,177.63c0,3.01,1.06,5.49,3.19,6.9,2.83,2.12,5.49,2.83,13.28,3.19,3.19.35,23.02.89,25.67.89,14.87,0,39.66-2.66,48.16-5.13,1.59-.53,2.83-.71,3.54-.71,4.6,0,10.45,6.2,10.45,10.98,0,2.3-1.42,3.9-4.07,4.6-4.78,1.42-33.46,3.01-51.34,3.01-33.64,0-46.03-1.24-53.29-5.13-6.37-3.54-9.38-9.56-9.38-18.59v-113.13h13.81v60.55c24.79-8.85,54.18-23.72,79.85-40.19l12.57,12.22c-30.1,16.29-64.8,29.92-92.42,36.12v44.44Zm80.03-122.16c20.01,13.99,26.2,20.54,26.2,27.8,0,4.78-2.83,8.68-6.2,8.68-1.77,0-3.01-1.06-5.13-5.13-6.02-10.8-11.86-18.77-19.48-26.56l4.6-4.78Zm20.01-9.91c21.07,14.16,26.38,19.65,26.38,27.09,0,5.13-2.66,9.03-5.84,9.03-1.95,0-3.01-.89-5.13-4.78-6.73-12.04-10.09-16.47-19.47-26.56l4.07-4.78Z"/>
      </g>
    </g>
  </g>
</svg>